<svg xmlns="http://www.w3.org/2000/svg" width="120" height="116.824" viewBox="0 0 120.00003 116.82443"><path d="M10.125 29.205c.12 19.62-.028 39.245.133 58.866 0 13.672 17.294 18.445 25.29 18.65 16.703-.017 33.406.055 50.11-.06 10.932 0 24.11-2.055 24.11-14.705.028-13.963-.05-25.07-.05-37.7-3.666-8.788-18.105.773-18.06-8.574.07-4.49.01-14.686-.33-16.737l-.503-1.503C88.683 21.092 80.78 10.338 64.73 10.338c-7.547.136-23.773-.39-33.207 0-9.434.39-12.074 1.695-16.96 6.697-3.19 3.456-4.715 7.86-4.423 12.732l-.015-.563z" stroke="#fff" stroke-width="2.75" fill="none"/><path d="M31.76 70.2c-2.637 0-3.96 1.25-3.96 4.556v9.57c0 2.403 2.41 2.994 4.358 2.994 14.14 0 43.194-.02 53.245.1 3.148 0 5.63-.856 5.53-5.945 0-2.493.105-4.648.115-6.484 0-2.73-1.812-4.736-4.807-4.736-18.826-.008-35.653-.054-54.48-.054zM27.607 43.555c.06-2.665 0-6.25 0-9.226 0-3.557 1.448-4.85 6.213-4.85 12.467.05 20.933.152 33.4.235 4.272 0 5.892 1.72 5.892 4.874 0 4.18.018 5.572 0 8.224-.023 3.28-1.993 5.876-6.3 5.876l-33.996.002c-5.356 0-5.21-3.226-5.21-5.137z" fill="none" stroke="#fff" stroke-width="2.75"/></svg>