<svg xmlns="http://www.w3.org/2000/svg" width="64" height="64" viewBox="0 0 63.999993 63.999996"><path d="M25.164 59.963c-1.298-.626-2.805-2.425-3.813-4.55-.693-1.467-1.448-3.85-1.903-6.016-.215-1.024-.47-2.043-.563-2.263-.345-.803-1.153-1.83-2.352-2.984-1.292-1.245-1.44-1.54-.943-1.884 1.17-.807 7.057-1.438 11.02-1.18 1.987.128 3.968.403 4.14.573.043.04.07.55.063 1.135-.01.78-.105 1.352-.36 2.164-.78 2.475-.85 2.806-.913 4.37-.036.91-.002 1.897.083 2.387.186 1.07.813 3.064 1.28 4.07.423.91.46 1.575.126 2.28-.316.662-.8 1.078-1.774 1.518-1.395.63-3.22.8-4.092.378zM47.2 42.228c-1.15-.406-4.825-1.325-7.154-1.79-8.17-1.63-16.94-1.987-24.668-1.004l-1.506.192-.19-.277c-.39-.575-1.55-3.25-2.087-4.82-.852-2.49-1.25-4.74-1.483-8.37l-.07-1.088.597-.22c9.933-3.663 19.52-9.632 26.984-16.8l1.66-1.594.497.992c1.142 2.268 2.607 5.772 3.642 8.71 2.164 6.136 3.582 12.593 4.215 19.185.237 2.468.45 6.935.335 7.047-.044.044-.39-.03-.77-.164zM5.65 40.73c-.38-.062-1.15-.337-1.71-.612-1.2-.588-2.292-1.662-2.84-2.79-.445-.914-1.1-3.592-1.1-4.495 0-1.62.677-3.207 1.874-4.394 1.068-1.06 1.73-1.4 3.92-2.014.99-.278 1.89-.533 2.002-.566.172-.052.212.14.285 1.355.235 3.88 1.136 7.534 2.73 11.06.35.77.66 1.465.694 1.543.036.084-.135.176-.418.227-.263.047-1.23.252-2.147.455-1.74.385-2.144.413-3.29.23z" fill="none" stroke="#fff" stroke-width="1.4"/><path d="M50.006 12.3a15.4 15.4 0 0 1 4.83 20.118M52.712 7.447a19.944 19.944 0 0 1 9.195 12.224 19.944 19.944 0 0 1-2.168 15.143M41.538 3.96a88.337 88.337 0 0 1 9.627 39.643" fill="none" stroke="#fff" stroke-width="1.4" stroke-linecap="round"/></svg>