<svg xmlns="http://www.w3.org/2000/svg" width="231.57" height="219.688"><path d="M50.565 188.648s-1.194-9.318 0-13.976c.762-2.966 2.39-6.57 12.662-6.57s13.23 3.744 14.095 6.57c1.313 4.3-1.434 15.05-1.434 15.05l-25.323-1.074" fill="#352115"/><path d="M54.687 190.38c0 1.88-1.524 3.403-3.404 3.403s-3.405-1.524-3.405-3.404c0-1.883 1.524-3.405 3.405-3.405 1.88 0 3.404 1.522 3.404 3.404M78.875 190.38c0 1.88-1.525 3.403-3.405 3.403s-3.404-1.524-3.404-3.404c0-1.883 1.523-3.405 3.404-3.405 1.88 0 3.405 1.522 3.405 3.404" fill="#f09f74"/><path d="M76.536 219.688H50.664s-.54-11.067.52-26.432c1.06-15.367 2.54-16.937 2.54-16.937h19.754s1.087 2.17 2.435 17.35c1.348 15.18.623 26.017.623 26.017" fill="#f9af83"/><path d="M77.56 219.688H49.238l.717-19.456 13.75 4.062 13.07-3.992.785 19.385" fill="#3d5b7a"/><path d="M53.074 177.06s8.453 7.59 22.933 5.376l-2.508-7.764-19.59-.358-.836 2.747" fill="#352115"/><path d="M64.59 208.714H62.1l-.593-4.017h3.673l-.594 4.017" fill="#a563b8"/><path d="M64.59 208.714H62.1l-.593 10.957h3.673l-.594-10.956" fill="#8647a4"/><path d="M49.718 199.964l14.075 4.21-2.55 3.106-11.633-5.137.108-2.18" fill="#fff"/><path d="M77.11 199.964l-14.075 4.21 2.55 3.106 11.526-5.137v-2.18" fill="#fff"/><path d="M59.606 187.574c0 .94-.762 1.7-1.7 1.7-.942 0-1.703-.76-1.703-1.7s.76-1.702 1.702-1.702c.94 0 1.7.762 1.7 1.702M70.726 187.574c0 .94-.762 1.7-1.702 1.7s-1.702-.76-1.702-1.7.762-1.702 1.702-1.702 1.702.762 1.702 1.702" fill="#1a1412"/><path d="M64.13 194.442l-.1-.016-.958-.32c-.21-.068-.37-.22-.47-.434-.412-.893.4-2.94.493-3.17.065-.16.246-.237.407-.172.16.065.237.248.17.407-.313.774-.728 2.184-.503 2.674l.1.104.958.32c.163.054.252.23.197.395-.044.13-.166.212-.296.212" fill="#a8785c"/><path d="M64 200.08c-.147 0-.3-.002-.454-.005-3.85-.078-6.59-.954-8.15-2.605-1.28-1.36-1.244-2.747-1.24-2.806.008-.258.2-.49.486-.45.257.01.458.226.45.483 0 .05-.01 1.09 1.012 2.155.952.993 3.02 2.195 7.46 2.286 8.547.174 8.818-4.605 8.82-4.653.01-.26.22-.452.485-.452.257.008.46.226.45.483 0 .058-.298 5.563-9.32 5.563" fill="#a8785c"/><path d="M156.094 188.766s-1.93-8.745-1.195-13.498c1.314-8.48 9.197-6.927 10.99-5.254 2.866-2.15 14.212-4.42 16.242 4.658 1.484 6.63-1.432 14.692-1.432 14.692l-24.606-.598" fill="#4d2e1c"/><path d="M159.38 188.826c0 1.88-1.525 3.404-3.406 3.404-1.88 0-3.403-1.524-3.403-3.404s1.524-3.405 3.404-3.405 3.405 1.526 3.405 3.406M183.566 188.826c0 1.88-1.524 3.404-3.405 3.404-1.88 0-3.403-1.524-3.403-3.404s1.524-3.405 3.404-3.405c1.882 0 3.406 1.526 3.406 3.406" fill="#f09f74"/><path d="M181.266 219.688h-25.872s-.542-11.067.52-26.432c1.06-15.367 2.54-16.937 2.54-16.937h19.752s1.09 2.17 2.436 17.35c1.348 15.18.624 26.017.624 26.017" fill="#f9af83"/><path d="M182.232 219.688h-27.75l.463-19.456 13.63 5.495 13.19-5.425.467 19.385" fill="#23b59d"/><path d="M154.864 202.864l.08-2.632 13.75 4.66 13.07-4.59.09 2.914-12.91 4.643-14.08-4.996" fill="#3d5b7a"/><path d="M156.616 180.283s4.194-.73 6.11-3.374c0 0 6.195 4.74 17.315 4.1l-1.548-7.2-20.873-.09-1.004 6.563" fill="#4d2e1c"/><path d="M172.41 209.502h6.275s1.364 5.103-3.275 5.103c-4.385 0-3-5.103-3-5.103M166.795 186.77h2.856v-1.25h-2.855v1.25zM178.717 186.02l-.328-1.205 2.125-.58.33 1.207-2.128.578M157.82 186.02l-2.126-.578.328-1.206 2.125.58-.328 1.204" fill="#3d5b7a"/><path d="M161.157 183.566c-1.405 0-2.548 1.144-2.548 2.55 0 1.405 1.142 2.55 2.547 2.55h2.494c1.407 0 2.55-1.145 2.55-2.55 0-1.406-1.143-2.55-2.55-2.55h-2.493zm2.494 6.35h-2.493c-2.095 0-3.798-1.706-3.798-3.8 0-2.095 1.702-3.8 3.797-3.8h2.494c2.096 0 3.8 1.705 3.8 3.8 0 2.094-1.704 3.8-3.8 3.8M172.825 183.566c-1.406 0-2.55 1.144-2.55 2.55 0 1.405 1.144 2.55 2.55 2.55h2.494c1.404 0 2.547-1.145 2.547-2.55 0-1.406-1.143-2.55-2.548-2.55h-2.495zm2.494 6.35h-2.495c-2.095 0-3.8-1.706-3.8-3.8 0-2.095 1.705-3.8 3.8-3.8h2.494c2.094 0 3.797 1.705 3.797 3.8 0 2.094-1.703 3.8-3.798 3.8" fill="#3d5b7a"/><path d="M163.33 186.236c0 .94-.76 1.703-1.7 1.703s-1.7-.764-1.7-1.704.76-1.7 1.7-1.7 1.7.76 1.7 1.7M174.45 186.236c0 .94-.76 1.703-1.7 1.703s-1.7-.764-1.7-1.704.76-1.7 1.7-1.7 1.7.76 1.7 1.7" fill="#1a1412"/><path d="M169.09 193.796l-.1-.016-.958-.32c-.208-.07-.37-.22-.47-.435-.41-.894.4-2.94.493-3.17.065-.16.247-.237.407-.17.16.064.237.246.172.406-.314.774-.73 2.184-.504 2.675l.1.103.96.32c.162.055.25.23.196.395-.044.13-.166.213-.296.213M169.126 200.32c-.15 0-.302 0-.457-.003-3.85-.077-6.594-.953-8.15-2.605-1.283-1.358-1.245-2.746-1.243-2.804.01-.26.205-.478.487-.45.257.01.458.226.45.483 0 .05-.01 1.09 1.012 2.155.953.994 3.02 2.196 7.46 2.285 8.51.18 8.81-4.46 8.82-4.656.013-.257.21-.455.488-.448.257.01.458.226.45.483-.003.056-.3 5.56-9.318 5.56" fill="#a8785c"/><path d="M132.086 169.416s3.866-5.79 10.57-4.06c3.704.954 6.93 4.537 6.093 10.87-.443 3.333-1.555 9.195 2.865 9.136 0 0-3.046 15.767-16.125 4.48-9.145-7.893-3.404-20.426-3.404-20.426" fill="#1a1412"/><path d="M118.77 188.766s-1.848-8.732-1.198-13.498c.718-5.254 5.615-9.076 11.708-5.97 9.435-4.3 14.867 1.68 15.527 5.374 1.193 6.688-1.433 15.05-1.433 15.05l-24.605-.956" fill="#352115"/><path d="M122.53 187.87c0 1.88-1.524 3.405-3.404 3.405s-3.404-1.525-3.404-3.405 1.524-3.404 3.404-3.404 3.404 1.524 3.404 3.404M146.717 187.87c0 1.88-1.525 3.405-3.403 3.405-1.88 0-3.405-1.525-3.405-3.405s1.524-3.404 3.404-3.404c1.878 0 3.403 1.524 3.403 3.404" fill="#f09f74"/><path d="M144.206 219.688h-25.872s-.54-11.067.52-26.432c1.06-15.367 2.54-16.937 2.54-16.937h19.752s1.09 2.17 2.438 17.35c1.346 15.18.622 26.017.622 26.017" fill="#f9af83"/><path d="M145.524 219.688h-28.322l.717-19.456 13.75 4.062 13.067-3.992.787 19.385" fill="#a563b8"/><path d="M117.68 199.964l14.08 4.21-2.554 3.106-11.634-5.137.11-2.18" fill="#fff"/><path d="M145.075 199.964l-14.078 4.21 2.552 3.106 11.525-5.137v-2.18" fill="#fff"/><path d="M128.024 176.464c0 2.26-1.833 4.09-4.092 4.09-2.258 0-4.09-1.83-4.09-4.09s1.832-4.093 4.09-4.093c2.26 0 4.092 1.835 4.092 4.094" fill="#352115"/><path d="M135.28 176.464c0 2.26-1.83 4.09-4.09 4.09s-4.09-1.83-4.09-4.09 1.83-4.093 4.09-4.093 4.09 1.835 4.09 4.094" fill="#352115"/><path d="M142.537 176.464c0 2.26-1.832 4.09-4.09 4.09-2.26 0-4.09-1.83-4.09-4.09s1.83-4.093 4.09-4.093c2.258 0 4.09 1.835 4.09 4.094" fill="#352115"/><path d="M132.026 208.355c0 .396-.32.716-.716.716-.396 0-.716-.32-.716-.715 0-.396.32-.716.716-.716.396 0 .716.32.716.715M132.026 210.862c0 .397-.32.718-.716.718-.396 0-.716-.32-.716-.718 0-.395.32-.716.716-.716.396 0 .716.32.716.716" fill="#fff"/><path d="M127.784 186.48c0 .94-.762 1.7-1.702 1.7s-1.7-.76-1.7-1.7.76-1.7 1.7-1.7 1.702.76 1.702 1.7M138.904 186.48c0 .94-.762 1.7-1.7 1.7-.942 0-1.703-.76-1.703-1.7s.762-1.7 1.704-1.7c.938 0 1.7.76 1.7 1.7" fill="#1a1412"/><path d="M132.752 192.945l-.1-.016-.956-.32c-.23-.077-.41-.24-.516-.472-.38-.828.25-2.435.325-2.615.065-.16.247-.24.407-.173.16.065.238.248.172.407-.238.587-.54 1.68-.337 2.12l.147.14.957.32c.164.054.252.23.2.395-.045.13-.168.213-.298.213M132.287 198.44l-.328-.005c-2.79-.056-4.78-.696-5.92-1.902-.954-1.013-.924-2.058-.923-2.102.01-.258.22-.488.487-.45.257.01.457.226.45.482-.002.133.038 2.918 5.922 3.035 5.92.152 6.16-3.063 6.168-3.2.012-.256.235-.46.487-.445.26.01.46.226.45.483 0 .04-.22 4.104-6.793 4.104" fill="#a8785c"/><path d="M110.37 219.688H84.5s-.542-11.067.52-26.432c1.06-15.367 2.54-16.937 2.54-16.937h19.752s1.087 2.17 2.436 17.35c1.348 15.18.623 26.017.623 26.017" fill="#f9af83"/><path d="M111.164 219.688h-27.75l.463-19.456s5.627 2.628 13.75 2.628c8.122 0 13.068-2.558 13.068-2.558l.47 19.385" fill="#35b5ed"/><path d="M83.796 203.986l.08-3.754s5.628 2.06 13.75 2.06c8.123 0 13.07-1.99 13.07-1.99l.09 4.04s-3.246 1.774-13.637 1.776c-10.843 0-13.354-2.132-13.354-2.132" fill="#3d5b7a"/><path d="M106.04 171.72c-2.044-1.174-4.995-1.946-9.25-1.946-3.044 0-5.38.445-7.166 1.167-7.384 1.926-9.208 17.535-9.06 24.515.116 5.494 3.41 7.02 5 7.165 3.94.36 5.493-3.224 5.493-3.224-5.614.12-4.32-15.047-3.03-19.873 3.36 1.213 10.362 2.857 18.41-.373 1.28 4.68 4.21 20.127-2.002 19.77 0 0 1.9 3.462 4.63 3.462 1.597.002 4.82-1.433 4.936-6.927.135-6.377-1.895-20.84-7.96-23.735" fill="#4d2e1c"/><path d="M91.933 184.554c-1.732 0-3.14 1.41-3.14 3.14 0 1.735 1.408 3.143 3.14 3.143 1.733 0 3.142-1.408 3.142-3.142 0-1.73-1.41-3.14-3.142-3.14zm0 7.533c-2.422 0-4.39-1.97-4.39-4.392 0-2.42 1.968-4.39 4.39-4.39 2.422 0 4.392 1.97 4.392 4.39 0 2.423-1.97 4.392-4.392 4.392M102.87 184.554c-1.732 0-3.14 1.41-3.14 3.14 0 1.735 1.408 3.143 3.14 3.143 1.733 0 3.142-1.408 3.142-3.142 0-1.73-1.41-3.14-3.14-3.14zm0 7.533c-2.42 0-4.39-1.97-4.39-4.392 0-2.42 1.97-4.39 4.39-4.39 2.422 0 4.392 1.97 4.392 4.39 0 2.423-1.97 4.392-4.39 4.392" fill="#3d5b7a"/><path d="M95.7 188.32h3.404v-1.25H95.7v1.25zM106.8 187.768l-.144-1.24 2.583-.303.145 1.24-2.584.303M87.796 187.766l-2.55-.395.19-1.234 2.55.395-.19 1.236" fill="#3d5b7a"/><path d="M93.695 186.845c0 .94-.76 1.7-1.702 1.7-.94 0-1.7-.76-1.7-1.7s.76-1.702 1.7-1.702 1.702.762 1.702 1.702M104.815 186.845c0 .94-.762 1.7-1.7 1.7-.94 0-1.703-.76-1.703-1.7s.762-1.702 1.702-1.702 1.7.762 1.7 1.702" fill="#1a1412"/><path d="M98.238 194.402l-.1-.014-.956-.32c-.252-.083-.44-.257-.543-.502-.327-.77.288-2.09.36-2.238.074-.157.26-.223.416-.147.155.075.22.262.147.418-.222.46-.512 1.338-.348 1.724l.164.153.956.32c.164.054.253.23.198.395-.044.13-.165.212-.296.212M97.97 199.203l-.247-.003c-2.044-.04-3.51-.515-4.353-1.41-.713-.756-.705-1.524-.702-1.61.01-.258.216-.494.486-.448.257.01.457.223.45.478 0 .092.052 1.97 4.137 2.053 4.147.09 4.303-2.088 4.31-2.18.014-.255.248-.465.488-.443.257.012.456.225.447.48-.005.13-.164 3.083-5.015 3.083" fill="#a8785c"/><path d="M16.188 124.37h-9.96c-1.662 0-3.227-.65-4.404-1.825C.647 121.365 0 119.802 0 118.14v-15.77c0-1.664.647-3.227 1.823-4.405C3 96.79 4.565 96.14 6.23 96.14h24.068c.996 0 1.933-.388 2.638-1.093.703-.703 1.09-1.64 1.09-2.636v-4.564h2.5v4.565c0 1.664-.646 3.23-1.822 4.406-1.178 1.177-2.743 1.824-4.406 1.824H6.228c-.995 0-1.93.39-2.636 1.092-.704.705-1.092 1.64-1.092 2.638v15.77c0 .995.388 1.932 1.092 2.637.704.704 1.64 1.092 2.637 1.092h9.958v2.5" fill="#3d5b7a"/><path d="M27.808 84.53h-17.43c-.997 0-1.936-.388-2.643-1.095-.707-.704-1.096-1.645-1.096-2.644v-7.883c0-.998.388-1.938 1.096-2.644.705-.707 1.645-1.096 2.643-1.096h11.618c.996 0 1.933-.388 2.64-1.092.702-.705 1.09-1.643 1.09-2.638v-9.13h2.5v9.13c0 1.663-.648 3.228-1.823 4.406-1.18 1.177-2.744 1.824-4.407 1.824h-11.62c-.33 0-.64.13-.875.364-.235.235-.364.546-.364.877v7.884c0 .332.128.642.36.876.238.235.55.365.88.365h17.428v2.5" fill="#23b59d"/><path d="M48.3 15.85h-2.5c-.346 0-.626-.28-.626-.625s.28-.625.625-.625h2.5c.345 0 .624.28.624.625 0 .346-.28.625-.625.625zm6.25 0h-2.5c-.346 0-.626-.28-.626-.625s.28-.625.625-.625h2.5c.345 0 .624.28.624.625 0 .346-.28.625-.625.625zm-14.692 1.252c-.172 0-.344-.07-.467-.21-.228-.258-.205-.652.054-.88.704-.626 1.56-1.066 2.476-1.273.337-.078.672.135.748.47.076.34-.135.672-.472.75-.71.16-1.376.5-1.924.986-.12.105-.266.156-.414.156zm-1.676 5.767c-.345 0-.625-.28-.625-.626v-2.04c0-.172.008-.345.024-.517.033-.343.346-.6.68-.566.345.034.597.337.566.68-.012.135-.02.27-.02.405v2.04c0 .344-.28.624-.624.624zm-6.467 4.6h-2.5c-.345 0-.625-.28-.625-.625s.28-.625.625-.625h2.5c.345 0 .625.28.625.625s-.28.625-.625.625zm3.977 0h-.227c-.345 0-.625-.28-.625-.625s.28-.625.625-.625h.227c.498 0 .967-.194 1.318-.546l.16-.18c.21-.272.603-.323.876-.11.272.212.32.605.11.877l-.26.297c-.59.59-1.372.913-2.204.913zm-12.727.007c-.33 0-.606-.258-.624-.59-.017-.346.248-.64.593-.658l.306-.01h2.225c.345 0 .625.28.625.625s-.28.625-.625.625L23 27.477h-.035zM18.43 31.17l-.16-.023c-.334-.088-.533-.43-.444-.763.24-.908.71-1.748 1.362-2.43.238-.25.634-.258.883-.02.25.238.26.633.022.883-.506.53-.872 1.183-1.058 1.885-.075.282-.327.467-.603.467zm-.167 6.234c-.345 0-.625-.28-.625-.625v-2.5c0-.348.28-.626.625-.626.346 0 .625.278.625.625v2.5c0 .344-.28.624-.625.624zm0 6.25c-.345 0-.625-.28-.625-.625v-2.5c0-.348.28-.626.625-.626.346 0 .625.278.625.625v2.5c0 .344-.28.624-.625.624" fill="#3d5b7a"/><path d="M58.412 66.273h-7.158c-1.665 0-3.23-.648-4.405-1.825-1.178-1.177-1.826-2.742-1.826-4.405V43.547c0-1.664.648-3.23 1.825-4.406 1.176-1.177 2.74-1.825 4.404-1.825h3.424c.996 0 1.932-.387 2.637-1.092.704-.704 1.092-1.64 1.092-2.638V19.272h2.5v14.315c0 1.664-.648 3.23-1.824 4.407-1.177 1.176-2.742 1.823-4.405 1.823h-3.424c-.996 0-1.933.388-2.637 1.093-.705.704-1.093 1.64-1.093 2.637v16.495c0 .997.388 1.933 1.093 2.638.704.704 1.64 1.092 2.637 1.092h7.158v2.5" fill="#a563b8"/><path d="M96.7 140.574h-2.5V125.09c0-.33-.13-.643-.364-.876-.235-.234-.546-.364-.877-.364H79.575c-1 0-1.938-.39-2.644-1.096-.706-.704-1.096-1.643-1.096-2.644v-5.603c0-.998.39-1.938 1.096-2.643.707-.706 1.646-1.095 2.644-1.095h17.117v2.5H79.576c-.33 0-.642.128-.877.362-.235.233-.364.544-.364.875v5.603c0 .332.13.643.362.875.236.236.548.365.878.365H92.96c.997 0 1.936.39 2.642 1.095.708.706 1.097 1.645 1.097 2.645v15.484" fill="#35b5ed"/><path d="M61.213 75.607H58.95c-.345 0-.625-.28-.625-.625 0-.346.28-.625.625-.625h2.263c.346 0 .625.28.625.625s-.28.625-.625.625zm-8.292 1.007c-.188 0-.375-.087-.497-.25-.21-.274-.154-.665.12-.874.75-.568 1.638-.94 2.57-1.074.342-.055.66.186.708.528.05.342-.185.658-.528.708-.723.107-1.412.394-1.994.834-.113.085-.245.128-.377.128zm-1.977 5.622c-.346 0-.625-.28-.625-.625v-1.65c0-.318.027-.636.08-.95.06-.34.387-.566.723-.51.34.057.57.38.51.72-.042.246-.062.494-.062.74v1.65c0 .346-.28.626-.625.626zm0 6.25c-.346 0-.625-.28-.625-.625v-2.5c0-.345.28-.624.625-.624s.625.28.625.625v2.5c0 .346-.28.626-.625.626zm.53 6.166c-.228 0-.45-.126-.558-.343-.39-.776-.597-1.648-.597-2.52v-.18c0-.345.28-.624.625-.624s.625.28.625.625v.18c0 .677.16 1.355.464 1.957.155.308.03.684-.278.84l-.28.065zm5.198 2.74h-.748c-.66 0-1.31-.115-1.93-.342-.324-.12-.49-.478-.37-.802.117-.323.478-.492.8-.37.48.174.986.265 1.5.265h.75c.345 0 .624.28.624.625 0 .344-.28.625-.625.625zm6.25 0h-2.5c-.344 0-.624-.28-.624-.624 0-.346.28-.625.625-.625h2.5c.347 0 .626.28.626.625 0 .344-.28.625-.625.625zm6.25 0h-2.5c-.344 0-.624-.28-.624-.624 0-.346.28-.625.625-.625h2.5c.347 0 .626.28.626.625 0 .344-.28.625-.625.625zm6.25 0h-2.5c-.344 0-.624-.28-.624-.624 0-.346.28-.625.625-.625h2.5c.347 0 .626.28.626.625 0 .344-.28.625-.625.625zm6.25 0h-2.5c-.344 0-.624-.28-.624-.624 0-.346.28-.625.625-.625h2.5c.347 0 .626.28.626.625 0 .344-.28.625-.625.625zm6.25 0h-2.5c-.344 0-.624-.28-.624-.624 0-.346.28-.625.625-.625h2.5c.347 0 .626.28.626.625 0 .344-.28.625-.625.625zm6.25 0h-2.5c-.344 0-.624-.28-.624-.624 0-.346.28-.625.625-.625h2.5c.347 0 .626.28.626.625 0 .344-.28.625-.625.625zm6.25 0h-2.5c-.344 0-.624-.28-.624-.624 0-.346.28-.625.625-.625h2.5c.347 0 .626.28.626.625 0 .344-.28.625-.625.625zm4.74 3.427c-.263 0-.508-.17-.594-.43-.213-.654-.57-1.232-1.058-1.72l-.105-.103c-.253-.234-.268-.63-.033-.883.234-.254.63-.27.882-.034l.14.135c.63.63 1.087 1.374 1.362 2.213.107.33-.07.682-.4.79l-.194.03zm.248 6.22c-.345 0-.625-.277-.625-.624v-2.5c0-.345.28-.625.625-.625s.625.28.625.626v2.5c0 .347-.28.625-.625.625M135.597 84.946h-8.092c-.998 0-1.936-.39-2.643-1.095-.707-.705-1.096-1.645-1.096-2.644v-8.714c0-.998.39-1.938 1.095-2.643.706-.71 1.646-1.097 2.645-1.097h28.945c.996 0 1.932-.39 2.637-1.093.704-.705 1.093-1.643 1.093-2.638v-7.78h2.5v7.78c0 1.663-.65 3.228-1.825 4.405-1.176 1.177-2.74 1.825-4.405 1.825h-28.945c-.33 0-.64.128-.875.363s-.364.546-.364.877v8.714c0 .33.13.643.363.876.234.236.545.364.875.364h8.092v2.5" fill="#3d5b7a"/><path d="M130.112 26.12h-2.5c-.346 0-.625-.28-.625-.624 0-.345.28-.625.625-.625h2.5c.345 0 .625.28.625.626 0 .345-.28.625-.625.625zm6.12.56c-.138 0-.278-.047-.395-.142-.328-.27-.746-.417-1.173-.417h-.802c-.346 0-.625-.28-.625-.624 0-.345.28-.625.625-.625h.802c.715 0 1.412.25 1.963.7.268.218.308.61.09.88-.123.15-.303.23-.485.23zm.922 5.968c-.345 0-.625-.28-.625-.625v-2.5c0-.345.28-.625.624-.625.345 0 .625.28.625.625v2.5c0 .346-.28.625-.626.625zm-.313 6.197l-.303-.08c-.3-.166-.41-.547-.242-.85.154-.274.234-.586.234-.904v-1.237c0-.346.28-.626.624-.626.345 0 .625.28.625.626v1.238c0 .53-.136 1.054-.393 1.514-.113.205-.327.32-.546.32zm-3.276 1.28h-2.5c-.345 0-.625-.28-.625-.624s.28-.624.624-.624h2.5c.345 0 .625.28.625.625 0 .346-.28.626-.626.626zm-8.67.41c-.203 0-.402-.1-.523-.28-.188-.29-.11-.677.18-.867.507-.334 1.1-.512 1.71-.512h1.054c.345 0 .625.28.625.625 0 .346-.28.626-.626.626h-1.053c-.365 0-.72.107-1.023.305-.106.07-.225.105-.343.105zM123.77 46.4c-.345 0-.625-.277-.625-.624v-2.5c0-.345.28-.625.625-.625.346 0 .625.28.625.626v2.5c0 .347-.28.625-.625.625zm1.21 5.82l-.324-.09c-.216-.13-.417-.286-.597-.468-.57-.566-.893-1.32-.914-2.12-.007-.346.265-.632.61-.64.36.017.633.264.64.61.013.477.206.928.546 1.267.11.11.23.203.36.28.295.18.39.562.212.86-.117.193-.324.3-.535.3zm6.185.356h-2.5c-.346 0-.625-.28-.625-.625s.28-.624.625-.624h2.5c.345 0 .625.28.625.625 0 .346-.28.626-.625.626zm6.25 0h-2.5c-.346 0-.625-.28-.625-.625s.28-.624.625-.624h2.5c.345 0 .625.28.625.625 0 .346-.28.626-.625.626zm6.25 0h-2.5c-.346 0-.625-.28-.625-.625s.28-.624.625-.624h2.5c.345 0 .625.28.625.625 0 .346-.28.626-.625.626zm6.25 0h-2.5c-.346 0-.625-.28-.625-.625s.28-.624.625-.624h2.5c.345 0 .625.28.625.625 0 .346-.28.626-.625.626" fill="#a563b8"/><path d="M107.28 46.66h-2.5v-8.714c0-.33-.128-.642-.362-.876-.235-.236-.547-.365-.877-.365h-3.423c-1 0-1.938-.39-2.644-1.095-.707-.706-1.096-1.645-1.096-2.645V16.16c0-.333-.128-.643-.363-.878-.235-.233-.546-.363-.876-.363h-4.98c-.33 0-.642.13-.877.362-.233.234-.362.545-.362.877v9.025c0 1-.39 1.94-1.097 2.645-.704.706-1.643 1.095-2.642 1.095h-5.29c-1 0-1.938-.39-2.644-1.095-.707-.706-1.097-1.645-1.097-2.645V11.18c0-1.664.648-3.23 1.824-4.405 1.18-1.178 2.743-1.825 4.407-1.825h29.255c1.664 0 3.228.647 4.405 1.824 1.178 1.177 1.825 2.74 1.825 4.405v7.47h-2.5v-7.47c0-.998-.387-1.934-1.09-2.638-.706-.705-1.643-1.092-2.64-1.092H82.377c-.997 0-1.934.387-2.638 1.092-.704.704-1.093 1.64-1.093 2.637v14.005c0 .33.13.642.363.876.235.235.546.365.877.365h5.29c.332 0 .643-.13.877-.364.236-.233.364-.545.364-.875V16.16c0-1 .39-1.94 1.095-2.645.707-.708 1.646-1.096 2.644-1.096h4.98c1 0 1.938.387 2.645 1.095.707.706 1.095 1.646 1.095 2.644v16.805c0 .33.13.644.363.877.234.234.546.363.877.363h3.424c1 0 1.94.39 2.645 1.097.706.704 1.096 1.644 1.096 2.644v8.714" fill="#23b59d"/><path d="M184.15 96.772h-20.23c-1.664 0-3.23-.647-4.406-1.823-1.177-1.18-1.824-2.744-1.824-4.406v-6.848c0-1.662.647-3.227 1.824-4.405 1.178-1.176 2.742-1.824 4.406-1.824h43.26c.997 0 1.934-.39 2.64-1.092.702-.704 1.09-1.64 1.09-2.637v-8.092h2.5v8.092c0 1.663-.648 3.228-1.824 4.405-1.177 1.177-2.74 1.824-4.406 1.824h-43.26c-.996 0-1.934.39-2.64 1.093-.703.704-1.09 1.64-1.09 2.636v6.848c0 .996.387 1.932 1.092 2.637.704.705 1.642 1.092 2.638 1.092h20.23v2.5" fill="#35b5ed"/><path d="M200.956 61.29h-1.25c-.345 0-.625-.28-.625-.625s.28-.625.626-.625h1.25c.345 0 .625.28.625.625 0 .346-.28.625-.624.625M212.26 18.34h-2.506c-.347 0-.625-.28-.625-.625s.277-.625.624-.625h2.505c.345 0 .624.28.624.625 0 .346-.28.625-.625.625zm5.886 1.433c-.16 0-.316-.06-.44-.18-.522-.515-1.17-.892-1.872-1.09-.333-.093-.527-.438-.433-.77.095-.333.444-.524.77-.433.906.254 1.74.74 2.415 1.403.245.242.25.637.006.883-.12.125-.283.187-.444.187zm1.484 5.865c-.345 0-.625-.28-.625-.625l-.003-2.482c-.013-.344.255-.635.6-.647.35-.028.635.253.65.6l.003 2.53c0 .346-.28.625-.625.625zm0 6.266c-.345 0-.625-.28-.625-.625v-2.507c0-.345.28-.625.625-.625s.625.28.625.625v2.506c0 .345-.28.624-.625.624zm-1.96 5.647c-.188 0-.373-.082-.496-.242-.21-.274-.158-.668.116-.877.152-.116.3-.245.44-.385.384-.384.687-.827.905-1.317.14-.317.507-.457.824-.32.315.14.457.51.32.825-.28.632-.673 1.202-1.166 1.696-.18.178-.368.343-.564.494-.114.086-.246.127-.38.127zm-22.334 1.02h-2.506c-.345 0-.625-.28-.625-.624 0-.346.28-.625.625-.625h2.506c.345 0 .625.28.625.626 0 .345-.28.625-.624.625zm6.266 0h-2.506c-.346 0-.625-.28-.625-.624 0-.346.28-.625.626-.625h2.506c.345 0 .625.28.625.626 0 .345-.28.625-.625.625zm6.267 0h-2.508c-.345 0-.625-.28-.625-.624 0-.346.28-.625.625-.625h2.507c.344 0 .624.28.624.626 0 .345-.28.625-.625.625zm6.265 0h-2.506c-.348 0-.626-.28-.626-.624 0-.346.278-.625.625-.625h2.505c.345 0 .625.28.625.626 0 .345-.28.625-.625.625zm-27.276.953c-.138 0-.274-.044-.39-.135-.27-.215-.315-.61-.1-.88l.244-.273c.59-.59 1.37-.914 2.205-.914h.25c.346 0 .625.28.625.626 0 .345-.28.625-.625.625h-.25c-.5 0-.97.195-1.32.546l-.15.17c-.124.155-.306.237-.49.237zm-.533 6.146c-.345 0-.625-.28-.625-.626v-2.506c0-.345.28-.625.625-.625.347 0 .625.28.625.625v2.506c0 .345-.278.625-.625.625zm-1.987 5.3c-.29 0-.55-.205-.61-.5-.07-.34.146-.67.485-.74.356-.07.682-.247.94-.506.19-.19.335-.41.427-.66.123-.323.485-.486.805-.365.324.12.487.48.367.804-.158.416-.398.787-.714 1.104-.433.432-.976.725-1.574.848l-.126.013zm-5.613 1.61l-.233-.046c-.32-.13-.475-.493-.347-.813.157-.387.388-.737.688-1.037.45-.45 1.016-.75 1.64-.862.337-.066.666.164.727.504.063.34-.163.665-.503.727-.373.07-.71.246-.98.515-.18.18-.32.39-.413.623-.098.243-.332.392-.58.392zm-.18 6.23c-.346 0-.625-.267-.625-.612V55.69c0-.344.28-.624.625-.624s.625.28.625.625v2.485c0 .345-.28.636-.625.636zm4.867 2.48l-2.542-.005c-.345-.02-.608-.314-.588-.66.018-.344.3-.606.658-.587l2.472.002c.346 0 .625.28.625.625 0 .346-.28.625-.626.625zm6.266 0h-2.506c-.345 0-.625-.28-.625-.625s.28-.625.624-.625h2.506c.346 0 .625.28.625.625 0 .346-.28.625-.625.625zm6.266 0h-2.506c-.346 0-.625-.28-.625-.625s.28-.625.625-.625h2.506c.346 0 .625.28.625.625 0 .346-.278.625-.624.625M205.94 18.34h-1.25c-.345 0-.624-.28-.624-.625s.28-.625.625-.625h1.25c.346 0 .626.28.626.625 0 .346-.28.625-.625.625" fill="#3d5b7a"/><path d="M172.322 36.083h-4.668c-1.663 0-3.228-.648-4.405-1.824-1.178-1.177-1.825-2.742-1.825-4.406v-17.43h2.5v17.43c0 .996.387 1.932 1.092 2.637.704.705 1.642 1.093 2.637 1.093h4.668c.332 0 .643-.13.877-.363.234-.234.362-.546.362-.877V26.74c0-.997.39-1.937 1.095-2.644.708-.706 1.647-1.095 2.645-1.095h12.45v2.5H177.3c-.33 0-.642.13-.877.365-.234.234-.363.545-.363.876v5.603c0 .998-.388 1.938-1.095 2.645-.706.706-1.645 1.095-2.645 1.095" fill="#a563b8"/><path d="M154.276 43.548h-2.5V32.654c0-.33-.13-.643-.362-.876-.234-.234-.547-.363-.877-.363H146.8c-.998 0-1.936-.39-2.643-1.096-.706-.706-1.095-1.646-1.095-2.645V11.49c0-1 .39-1.94 1.097-2.644.704-.706 1.642-1.095 2.64-1.095h7.47v2.5h-7.47c-.33 0-.64.13-.875.364-.234.235-.363.545-.363.877v16.185c0 .33.13.64.363.875.235.235.546.365.876.365h3.737c.998 0 1.937.39 2.643 1.094.707.706 1.096 1.645 1.096 2.644v10.894" fill="#35b5ed"/><path d="M133.274 119.246h-2.5v-6.458c0-1.003.39-1.944 1.1-2.653.706-.706 1.648-1.097 2.65-1.097h25.208c.334 0 .648-.13.884-.367.236-.235.366-.55.366-.882v-2.5c0-.334-.13-.648-.365-.884-.237-.236-.55-.366-.885-.366h-32.5c-1 0-1.943-.39-2.65-1.1-.708-.706-1.1-1.648-1.1-2.65V98.62c0-1 .392-1.944 1.1-2.65.707-.71 1.65-1.1 2.65-1.1h11.25c.334 0 .648-.13.884-.365.236-.237.366-.55.366-.885v-3.333h2.5v3.333c0 1.002-.39 1.945-1.098 2.652-.708.708-1.65 1.1-2.652 1.1h-11.25c-.333 0-.647.13-.883.364-.238.237-.368.55-.368.885v1.668c0 .333.13.647.365.883.238.238.552.368.885.368h32.5c1.002 0 1.944.39 2.652 1.098.708.708 1.098 1.65 1.098 2.652v2.5c0 1.002-.39 1.944-1.098 2.652-.708.708-1.65 1.098-2.652 1.098h-25.208c-.334 0-.648.13-.883.364-.235.238-.366.552-.366.886v6.458" fill="#a563b8"/><path d="M66.4 143.897c0 3.438-2.787 6.224-6.224 6.224H18.263c-3.437 0-6.224-2.785-6.224-6.223v-26.973c0-3.438 2.786-6.224 6.223-6.224h41.913c3.437 0 6.224 2.786 6.224 6.224v26.973" fill="#3d5b7a"/><path d="M18.263 146.37c-1.364 0-2.474-1.11-2.474-2.472v-26.974c0-1.364 1.11-2.474 2.473-2.474h41.913c1.365 0 2.474 1.11 2.474 2.474v26.974c0 1.363-1.11 2.473-2.474 2.473H18.263" fill="#e9f1f0"/><path d="M108.313 151.192c0 1.574-1.277 2.85-2.85 2.85H86.265c-1.575 0-2.85-1.276-2.85-2.85v-12.355c0-1.573 1.275-2.85 2.85-2.85h19.196c1.574 0 2.85 1.277 2.85 2.85v12.355" fill="#35b5ed"/><path d="M86.266 151.397c-.114 0-.207-.092-.207-.205v-12.355c0-.112.092-.205.206-.205h19.196c.113 0 .205.093.205.205v12.355c0 .113-.092.205-.205.205H86.266" fill="#e9f1f0"/><path d="M182.02 114.52h-2.5c-.348 0-.626-.28-.626-.626 0-.347.278-.626.625-.626h2.5c.344 0 .624.28.624.626 0 .345-.28.624-.625.624zm6.25 0h-2.5c-.348 0-.626-.28-.626-.626 0-.347.278-.626.625-.626h2.5c.344 0 .624.28.624.626 0 .345-.28.624-.625.624zm4.36 0h-.61c-.348 0-.626-.28-.626-.626 0-.347.278-.626.625-.626h.61c.346 0 .626.28.626.626 0 .345-.28.624-.625.624zm-19.07.944c-.136 0-.274-.045-.39-.135-.27-.216-.313-.61-.1-.88l.24-.267c.59-.59 1.372-.915 2.204-.915h.255c.344 0 .624.28.624.626 0 .345-.28.624-.625.624h-.256c-.498 0-.967.194-1.32.547l-.144.163c-.124.156-.306.236-.49.236zm-.536 6.127c-.345 0-.625-.278-.625-.624v-2.5c0-.345.28-.625.624-.625.346 0 .625.28.625.626v2.5c0 .347-.28.625-.626.625zm1.352 5.736l-.284-.07c-.288-.146-.552-.338-.782-.57-.51-.51-.83-1.19-.898-1.912-.03-.344.222-.647.565-.68.35-.03.648.22.68.565.04.438.227.833.538 1.142.14.14.295.254.467.343.307.157.43.534.272.84-.112.218-.33.34-.558.34zm6.208.274h-2.5c-.345 0-.625-.28-.625-.625s.28-.625.624-.625h2.5c.346 0 .625.28.625.625s-.28.625-.626.625zm6.25 0h-2.5c-.345 0-.625-.28-.625-.625s.28-.625.624-.625h2.5c.346 0 .625.28.625.625s-.28.625-.626.625zm4.552 2.766c-.345 0-.625-.28-.625-.625v-.275c0-.498-.193-.966-.545-1.317l-.148-.133c-.27-.215-.313-.61-.1-.88.215-.27.61-.313.88-.1l.252.228c.587.587.91 1.37.91 2.202v.276c0 .346-.278.626-.624.626zm0 6.25c-.345 0-.625-.28-.625-.625v-2.5c0-.345.28-.624.626-.624s.625.28.625.625v2.5c0 .346-.278.626-.624.626" fill="#23b59d"/><path d="M204.25 149.11c0 1.573-1.276 2.85-2.85 2.85h-19.196c-1.575 0-2.852-1.277-2.852-2.85v-12.356c0-1.574 1.277-2.85 2.852-2.85H201.4c1.574 0 2.85 1.276 2.85 2.85v12.355" fill="#23b59d"/><path d="M182.204 149.314c-.114 0-.207-.093-.207-.205v-12.356c0-.113.093-.205.207-.205H201.4c.112 0 .205.09.205.204v12.355c0 .11-.093.204-.206.204h-19.196" fill="#e9f1f0"/><path d="M166.2 145.6c0 2.915-2.36 5.277-5.273 5.277h-35.513c-2.913 0-5.274-2.362-5.274-5.276V122.75c0-2.915 2.36-5.275 5.274-5.275h35.513c2.913 0 5.274 2.36 5.274 5.275V145.6" fill="#a563b8"/><path d="M125.414 147.126c-.84 0-1.524-.684-1.524-1.525V122.75c0-.842.684-1.525 1.524-1.525h35.513c.84 0 1.524.683 1.524 1.525V145.6c0 .842-.683 1.527-1.523 1.527h-35.513" fill="#e9f1f0"/><path d="M43.758 87.69c0 1.334-1.082 2.415-2.417 2.415H25.065c-1.334 0-2.417-1.08-2.417-2.416V77.213c0-1.335 1.083-2.418 2.417-2.418H41.34c1.336 0 2.418 1.083 2.418 2.418V87.69" fill="#23b59d"/><path d="M25.292 87.46h15.82V77.44h-15.82v10.02z" fill="#e9f1f0"/><path d="M231.57 116.146c0 3-2.433 5.433-5.43 5.433h-36.583c-2.998 0-5.43-2.434-5.43-5.434v-23.54c0-3 2.432-5.433 5.43-5.433h36.582c2.997 0 5.43 2.432 5.43 5.432v23.54" fill="#35b5ed"/><path d="M190.27 118.69c-1.656 0-3.003-1.346-3.003-3V93.063c0-1.658 1.347-3.004 3.003-3.004h35.156c1.656 0 3.003 1.346 3.003 3.004v22.625c0 1.654-1.348 3-3.004 3H190.27" fill="#f7fdfe"/><path d="M36.937 55.317c0 1.915-1.554 3.468-3.47 3.468H10.114c-1.916 0-3.468-1.552-3.468-3.467V40.285c0-1.916 1.552-3.47 3.468-3.47h23.355c1.915 0 3.47 1.554 3.47 3.47v15.03" fill="#3d5b7a"/><path d="M10.113 56.14c-.454 0-.824-.37-.824-.823v-15.03c0-.456.37-.825.823-.825h23.355c.454 0 .823.37.823.824v15.03c0 .454-.368.824-.822.824H10.113" fill="#f7fdfe"/><path d="M70.135 21.06c0 1.336-1.084 2.42-2.42 2.42H51.417c-1.336 0-2.42-1.084-2.42-2.42V10.57c0-1.334 1.084-2.42 2.42-2.42h16.298c1.336 0 2.42 1.086 2.42 2.42v10.49" fill="#a563b8"/><path d="M51.417 20.98l.08-10.41 16.218.08-.08 10.33H51.417" fill="#e9f1f0"/><path d="M112.462 115.518c0 1.153-.936 2.09-2.09 2.09H96.295c-1.154 0-2.09-.937-2.09-2.09v-9.06c0-1.154.936-2.09 2.09-2.09h14.077c1.154 0 2.09.936 2.09 2.09v9.06" fill="#3d5b7a"/><path d="M96.85 114.962h12.967v-7.95H96.85v7.95z" fill="#e9f1f0"/><path d="M150.432 89.063c0 1.154-.936 2.09-2.09 2.09h-14.077c-1.154 0-2.09-.936-2.09-2.09v-9.06c0-1.154.936-2.09 2.09-2.09h14.077c1.154 0 2.09.936 2.09 2.09v9.06" fill="#3d5b7a"/><path d="M134.82 88.507h12.967v-7.95H134.82v7.95z" fill="#e9f1f0"/><path d="M129.517 27.97c0 1.354-1.1 2.454-2.457 2.454h-16.538c-1.357 0-2.457-1.1-2.457-2.455V17.323c0-1.358 1.1-2.457 2.457-2.457h16.538c1.357 0 2.457 1.1 2.457 2.457V27.97" fill="#23b59d"/><path d="M110.71 27.78h16.163V17.51H110.71V27.78z" fill="#f7fdfe"/><path d="M117.65 79.806c0 3.753-3.044 6.795-6.796 6.795h-45.75c-3.753 0-6.796-3.04-6.796-6.794V50.363c0-3.753 3.043-6.795 6.795-6.795h45.75c3.753 0 6.797 3.042 6.797 6.795v29.443" fill="#35b5ed"/><path d="M65.103 83.956c-2.29 0-4.15-1.862-4.15-4.15V50.363c0-2.29 1.86-4.15 4.15-4.15h45.75c2.29 0 4.152 1.86 4.152 4.15v29.443c0 2.288-1.862 4.15-4.15 4.15H65.102" fill="#e9f1f0"/><path d="M229.9 65.475c0 2.283-1.85 4.133-4.133 4.133H197.93c-2.28 0-4.133-1.85-4.133-4.133V47.56c0-2.283 1.852-4.133 4.134-4.133h27.837c2.283 0 4.133 1.85 4.133 4.134v17.915" fill="#3d5b7a"/><path d="M197.93 65.857c-.21 0-.383-.17-.383-.382V47.56c0-.21.173-.383.384-.383h27.837c.212 0 .383.172.383.384v17.915c0 .21-.17.383-.383.383H197.93" fill="#e9f1f0"/><path d="M209.464 27.504c0 1.548-1.255 2.803-2.803 2.803h-18.876c-1.548 0-2.804-1.255-2.804-2.803v-12.15c0-1.547 1.256-2.803 2.804-2.803h18.877c1.55 0 2.804 1.257 2.804 2.805v12.15" fill="#a563b8"/><path d="M187.784 27.662l-.16-.158v-12.15l.16-.157h18.877l.16.158v12.15l-.16.157h-18.876" fill="#e9f1f0"/><path d="M177.095 15.713c0 1.626-1.32 2.946-2.946 2.946H154.31c-1.626 0-2.945-1.32-2.945-2.947V2.946c0-1.626 1.32-2.946 2.945-2.946h19.837c1.625 0 2.945 1.32 2.945 2.946v12.767" fill="#35b5ed"/><path d="M154.312 16.16c-.246 0-.445-.203-.445-.448V2.946c0-.245.2-.446.445-.446h19.837c.245 0 .445.2.445.446v12.766c0 .245-.2.447-.446.447H154.31" fill="#e9f1f0"/><path d="M171.805 58.618c0 1.862-1.51 3.373-3.374 3.373h-22.715c-1.863 0-3.374-1.51-3.374-3.372v-14.62c0-1.862 1.512-3.373 3.375-3.373h22.716c1.864 0 3.375 1.51 3.375 3.374v14.618" fill="#a563b8"/><path d="M145.715 59.346c-.4 0-.73-.327-.73-.728v-14.62c0-.402.33-.728.73-.728h22.716c.404 0 .73.326.73.73v14.618c0 .4-.326.728-.73.728h-22.715" fill="#f7fdfe"/><path d="M87.255 92.19h-.05c-2.4-.02-4.334-1.668-4.31-3.678l.02-.177-2.73-.025c-.662-.004-1.203-.764-1.21-1.71h16.552v.09c-.004.966-.556 1.755-1.237 1.755h-.005l-2.722-.027.018.173c-.017 1.997-1.952 3.6-4.325 3.6m12.162-48.623H75.613c3.097-2.646 7.168-4.283 11.887-4.283h.182c4.667.043 8.678 1.673 11.735 4.283" fill="#c4cacb"/><path d="M95.527 86.6H78.974v-.06c.002-.354.09-.66.224-.934-.523-.237-.908-.872-.9-1.65h17.96c.003.05.004.103.003.155-.01.777-.4 1.415-.936 1.644.115.253.193.533.203.847m6.415-40.388H73.09c.747-.962 1.59-1.848 2.523-2.645h23.804c.934.797 1.778 1.684 2.525 2.645" fill="#2e99ce"/><path d="M96.258 83.956h-17.96v-.008c0-.498.163-.943.415-1.26-.446-.298-.755-.877-.75-1.56 0-.377.126-.707.287-.994-.507-.283-.853-.89-.85-1.597.003-.547.234-1.017.564-1.333-.28-.884-.636-1.87-.93-2.348-2.604-4.21-6.557-8.306-7.547-13.765-.98-5.418.444-10.81 3.603-14.878h28.852c3.23 4.157 4.637 9.692 3.536 15.208-1.087 5.444-5.314 9.41-7.994 13.574-.295.464-.608 1.43-.858 2.307.375.323.626.824.62 1.416-.003.713-.363 1.312-.876 1.585.16.29.267.62.264.996-.003.684-.322 1.263-.778 1.548.23.29.377.676.402 1.112" fill="#c4cacb"/><path d="M89.554 86.53c-.032 2.007-1.98 3.622-4.387 3.6-2.395-.02-4.333-1.67-4.312-3.68.015-2.01 1.974-3.623 4.38-3.6 2.4.02 4.33 1.67 4.32 3.68" fill="#46484c"/><path d="M103.448 59.357c2.188-10.97-5.552-22.02-17.8-22.138-12.25-.108-20.19 10.795-18.195 21.81.99 5.46 4.94 9.552 7.546 13.76.594.97 1.437 4.047 1.437 4.047L94.14 77s.7-3.106 1.312-4.064c2.674-4.17 6.903-8.134 7.996-13.58" fill="#fbc044"/><path d="M77.4 71.31c-.732-1.17-1.548-2.334-2.388-3.52-2.145-3.02-4.17-5.876-4.784-9.26-.854-4.726.402-9.52 3.442-13.126 2.95-3.5 7.2-5.404 11.955-5.36 4.753.04 8.962 2.025 11.854 5.576L77.4 71.31" fill="#fcd071"/><path d="M87.83 51.714c-.03.052-.117.44.067 1.107l.096.294c.086-.786-.048-1.32-.163-1.4zm-6.656 1.372c.036.062.033.62.326 1.354.132-.275.203-.545.206-.775.003-.245-.06-.506-.532-.58zm8.32 23.885l-.168-.024c-.32-.11-.495-.488-.4-.843l4.487-18.86c-.793.39-1.738.43-2.803.125-.905-.258-1.686-.782-2.302-1.424-.823 1.402-2.054 2.18-3.5 2.2-1.326-.013-2.554-.544-3.438-1.553-.567.465-1.27.805-2.06.932-.72.12-1.533-.017-2.162-.178L81.49 75.86c.094.362-.078.74-.398.846-.318.116-.658-.092-.755-.447l-4.674-19.715c-.068-.246-.005-.51.17-.686.166-.178.412-.238.623-.146.01.005 1.574.643 2.685.47.59-.094 1.086-.35 1.495-.675l-.104-.21c-.548-1.17-.643-2.408-.218-3.068.23-.375.608-.545 1.036-.482.967.15 1.576.884 1.57 1.914-.004.65-.25 1.352-.68 1.98.51.588 1.388 1.225 2.55 1.148 1.458-.022 2.27-1.046 2.69-1.918-.664-1.065-.973-2.235-.887-3.095.078-.84.537-1.383 1.197-1.413.448.002.86.234 1.115.693.454.82.428 2.265-.016 3.614.514.627 1.202 1.147 2.03 1.383 2.38.675 3.09-1.058 3.24-1.568l.044-.14c.094-.348.43-.55.738-.455.318.1.51.462.43.817l-.037.12-5.255 21.662c-.07.287-.318.48-.582.477" fill="#fff"/><path d="M93.494 84.627c-.007.973-.565 1.762-1.242 1.753l-14.097-.133c-.68-.002-1.225-.797-1.218-1.77.01-.97.564-1.754 1.246-1.75l14.105.134c.674.006 1.218.8 1.206 1.768" fill="#6e7178"/><path d="M94.23 82.05c-.013.975-.62 1.756-1.354 1.75l-15.3-.142c-.737-.005-1.324-.797-1.318-1.772.015-.975.61-1.757 1.346-1.75l15.297.142c.74.006 1.334.8 1.33 1.773" fill="#46484c"/><path d="M94.605 79.234c-.005.97-.636 1.758-1.406 1.75l-15.9-.143c-.77-.01-1.383-.8-1.37-1.773.006-.976.633-1.756 1.403-1.75l15.902.143c.763.01 1.378.804 1.37 1.774" fill="#6e7178"/><path d="M95.21 76.653c-.002.974-.668 1.762-1.487 1.752l-16.897-.154c-.817-.01-1.473-.804-1.468-1.778.02-.967.684-1.75 1.502-1.744l16.89.154c.824.005 1.468.8 1.46 1.77" fill="#46484c"/><path d="M189.732 150.913s-.416 3.54-3.75 7.916c0 0 6.042-2.5 7.5-7.71l-3.75-.207" fill="#23b59d"/><path d="M130.9 150.18s1.39 3.285.656 8.735c0 0 4.014-5.16 2.706-10.41l-3.362 1.675" fill="#a563b8"/><path d="M92.233 153.344s-.53 3.526 1.533 8.625c0 0-5.17-4.004-5.205-9.414l3.673.788" fill="#35b5ed"/><path d="M53.275 149.594s-.53 3.527 1.533 8.625c0 0-5.17-4.004-5.205-9.412l3.672.786" fill="#3d5b7a"/></svg>