<svg xmlns="http://www.w3.org/2000/svg" width="256" height="256"><defs><filter id="a" x="0" y="0" width="1" height="1" color-interpolation-filters="sRGB"><feColorMatrix type="saturate" values="1" result="fbSourceGraphic"/><feColorMatrix in="fbSourceGraphic" values="-1 0 0 0 1 0 -1 0 0 1 0 0 -1 0 1 0 0 0 1 0"/></filter></defs><path d="M32.048 215.157c-25.176-14.043-49.1-9.13 4.298-23.616 39.885-10.818 28.958 3.103 3.98-33.95-29.89-44.337-21.802-132.997 1.48-115.754 144.447 106.974 29.16-11.744 142.75-9.212 24.41.545 11.776 17.39 56.258 3.233 17.485-5.566-16.69 23.027.316 20.35 28.286-4.454-8.4 6.76-12.336 37.9-17.69 139.925-146.573 149.036-196.746 121.05zm70.016 5.582c23.48-2.2 45.176-9.65 62.64-21.51 4.18-2.84 12.22-9.745 17.873-15.35 24.07-23.868 38.313-56.547 39.39-90.373l.315-9.855 6.372-5.51c6.958-6.013 17.05-18.21 16.202-19.582-.29-.473-4.146.42-8.566 1.98-12.17 4.3-13.444 3.91-7.677-2.355 5.023-5.456 9.76-13.59 9.76-16.76 0-2.288-.576-2.292-4.024-.03-3.55 2.328-21.582 8.924-24.398 8.924-1.19 0-3.183-1.133-4.43-2.515-3.604-3.996-14.966-9.163-23.367-10.628-20.338-3.546-40.914 7.603-50.03 27.11-3.11 6.654-3.79 9.682-4.064 18.126l-.33 10.137-5.095-.326c-13.134-.84-35.926-8.162-49.737-15.976-9.937-5.623-22.45-15.348-30.155-23.435-3.805-3.994-7.446-7.262-8.09-7.262-.646 0-2.35 2.55-3.786 5.663-2.14 4.636-2.612 7.825-2.612 17.607 0 11.143.268 12.49 3.993 20.065 2.196 4.466 5.6 9.953 7.564 12.193 4.237 4.832 2.796 5.24-6.108 1.725-3.27-1.29-6.18-1.962-6.466-1.49-.285.472-.028 4.076.57 8.01 2.243 14.742 12.48 28.878 25.47 35.175 2.934 1.422 5.334 2.855 5.334 3.185 0 .33-3.17.416-7.045.193-3.874-.224-7.392-.058-7.818.368-1.202 1.203 4.95 12.494 9.64 17.69 6.09 6.75 13.646 11.366 22.562 13.783l7.8 2.114-5.725 3.578c-13.19 8.24-29.023 12.766-46.462 13.277-6.735.198-12.378.823-12.54 1.39-.512 1.802 24.283 13.368 35.435 16.53 8.997 2.55 20.713 4.447 32.128 5.202 1.31.087 8.274-.394 15.476-1.068z" filter="url(#a)"/></svg>