<?xml version="1.0" encoding="UTF-8" standalone="no"?>
<!-- Created with Inkscape (http://www.inkscape.org/) -->

<svg
   xmlns:dc="http://purl.org/dc/elements/1.1/"
   xmlns:cc="http://creativecommons.org/ns#"
   xmlns:rdf="http://www.w3.org/1999/02/22-rdf-syntax-ns#"
   xmlns:svg="http://www.w3.org/2000/svg"
   xmlns="http://www.w3.org/2000/svg"
   xmlns:sodipodi="http://sodipodi.sourceforge.net/DTD/sodipodi-0.dtd"
   xmlns:inkscape="http://www.inkscape.org/namespaces/inkscape"
   id="svg4190"
   version="1.1"
   inkscape:version="0.91 r"
   width="63.999992"
   height="63.999996"
   viewBox="0 0 63.999993 63.999996"
   sodipodi:docname="blog.svg">
  <metadata
     id="metadata4196">
    <rdf:RDF>
      <cc:Work
         rdf:about="">
        <dc:format>image/svg+xml</dc:format>
        <dc:type
           rdf:resource="http://purl.org/dc/dcmitype/StillImage" />
        <dc:title></dc:title>
      </cc:Work>
    </rdf:RDF>
  </metadata>
  <defs
     id="defs4194" />
  <sodipodi:namedview
     pagecolor="#000000"
     bordercolor="#666666"
     borderopacity="1"
     objecttolerance="10"
     gridtolerance="10"
     guidetolerance="10"
     inkscape:pageopacity="0"
     inkscape:pageshadow="2"
     inkscape:window-width="1863"
     inkscape:window-height="1056"
     id="namedview4192"
     showgrid="false"
     fit-margin-top="3.813815"
     fit-margin-left="0"
     fit-margin-right="0"
     fit-margin-bottom="3.813815"
     inkscape:zoom="16.245778"
     inkscape:cx="32.519158"
     inkscape:cy="33.004717"
     inkscape:window-x="57"
     inkscape:window-y="24"
     inkscape:window-maximized="1"
     inkscape:current-layer="svg4190" />
  <path
     style="fill:none;stroke:#ffffff;stroke-width:1.4;stroke-miterlimit:4;stroke-dasharray:none;stroke-opacity:1"
     d="m 25.163707,59.963255 c -1.298083,-0.626346 -2.804703,-2.424829 -3.812401,-4.550937 -0.694796,-1.465931 -1.449027,-3.848301 -1.904523,-6.015755 -0.215155,-1.023831 -0.468611,-2.042109 -0.563224,-2.262832 -0.344144,-0.802873 -1.152485,-1.82847 -2.35165,-2.983716 -1.292397,-1.24506 -1.440308,-1.540659 -0.942546,-1.883692 1.171725,-0.807489 7.057444,-1.438256 11.0209,-1.181105 1.986703,0.128897 3.967409,0.403544 4.140998,0.574188 0.04175,0.04099 0.06958,0.552027 0.06187,1.135602 -0.01031,0.781415 -0.105475,1.351602 -0.361234,2.163551 -0.779959,2.47604 -0.849164,2.807881 -0.911532,4.370115 -0.03634,0.909854 -0.002,1.89874 0.08299,2.388763 0.185592,1.070641 0.812355,3.063304 1.279774,4.068779 0.423191,0.910313 0.459851,1.576111 0.125547,2.279948 -0.315044,0.663291 -0.799921,1.078701 -1.7725,1.518537 -1.39564,0.631167 -3.219336,0.799858 -4.092487,0.378554 z"
     id="path4212"
     inkscape:connector-curvature="0" />
  <path
     style="fill:none;stroke:#ffffff;stroke-opacity:1;stroke-width:1.4;stroke-miterlimit:4;stroke-dasharray:none"
     d="m 47.20122,42.228058 c -1.15084,-0.40586 -4.82621,-1.3252 -7.1555,-1.78984 -8.17051,-1.62983 -16.9395,-1.98672 -24.66766,-1.00396 l -1.50643,0.19156 -0.1883,-0.27643 c -0.39113,-0.5742 -1.55032,-3.24977 -2.08824,-4.81991 -0.85255,-2.48859 -1.25148,-4.74021 -1.4828,-8.36912 l -0.0693,-1.08807 0.59623,-0.2199 c 9.93373,-3.66369 19.51929,-9.6319 26.98504,-16.80155 l 1.65839,-1.59261 0.49863,0.99172 c 1.14045,2.26825 2.60538,5.77248 3.64073,8.70892 2.16373,6.13672 3.5823,12.59407 4.21496,19.18659 0.23677,2.46716 0.4494,6.93438 0.33541,7.04665 -0.0444,0.0437 -0.39136,-0.0301 -0.77111,-0.16405 z"
     id="path4208"
     inkscape:connector-curvature="0" />
  <path
     style="fill:none;stroke:#ffffff;stroke-opacity:1;stroke-width:1.4;stroke-miterlimit:4;stroke-dasharray:none"
     d="M 5.64908,40.729118 C 5.26934,40.668318 4.49989,40.393358 3.9392,40.118078 2.74098,39.529798 1.64784,38.455538 1.09858,37.326518 0.65481,36.414358 0,33.735898 0,32.832898 c 0,-1.62072 0.67663,-3.20719 1.87386,-4.39356 1.06804,-1.05835 1.73079,-1.3987 3.92092,-2.01355 0.99005,-0.27795 1.89039,-0.53247 2.00076,-0.56561 0.17225,-0.0517 0.21271,0.14012 0.28573,1.35445 0.23339,3.8818 1.13455,7.53401 2.72933,11.06138 0.34823,0.77023 0.66027,1.4641 0.69342,1.54195 0.0357,0.0838 -0.13481,0.17652 -0.41802,0.2273 -0.26305,0.0472 -1.22901,0.25182 -2.14656,0.45476 -1.73845,0.38451 -2.14348,0.41271 -3.29036,0.2291 z"
     id="path4206"
     inkscape:connector-curvature="0" />
  <path
     style="fill:none;fill-rule:evenodd;stroke:#ffffff;stroke-width:1.4;stroke-linecap:round;stroke-linejoin:miter;stroke-opacity:1;stroke-miterlimit:4;stroke-dasharray:none"
     id="path4266"
     sodipodi:type="arc"
     sodipodi:cx="41.327522"
     sodipodi:cy="25.022848"
     sodipodi:rx="15.400271"
     sodipodi:ry="15.400271"
     sodipodi:start="5.3110369"
     sodipodi:end="0.5009095"
     d="m 50.005976,12.30071 a 15.400271,15.400271 0 0 1 4.829835,20.11771"
     sodipodi:open="true" />
  <path
     style="fill:none;fill-rule:evenodd;stroke:#ffffff;stroke-width:1.4;stroke-linecap:round;stroke-linejoin:miter;stroke-opacity:1;stroke-miterlimit:4;stroke-dasharray:none"
     id="path4279"
     sodipodi:type="arc"
     sodipodi:cx="42.589767"
     sodipodi:cy="24.631117"
     sodipodi:rx="19.943918"
     sodipodi:ry="19.943918"
     sodipodi:start="5.2447144"
     sodipodi:end="0.53581608"
     sodipodi:open="true"
     d="m 52.712071,7.4468553 a 19.943918,19.943918 0 0 1 9.19504,12.2244107 19.943918,19.943918 0 0 1 -2.16852,15.142077" />
  <path
     style="fill:none;fill-rule:evenodd;stroke:#ffffff;stroke-width:1.4;stroke-linecap:round;stroke-linejoin:miter;stroke-opacity:1;stroke-miterlimit:4;stroke-dasharray:none"
     id="path4293"
     sodipodi:type="arc"
     sodipodi:cx="-37.170834"
     sodipodi:cy="44.065289"
     sodipodi:rx="88.337051"
     sodipodi:ry="88.337051"
     sodipodi:start="5.8119464"
     sodipodi:end="6.2779493"
     d="M 41.538055,3.9611057 A 88.337051,88.337051 0 0 1 51.165007,43.602757"
     sodipodi:open="true" />
</svg>
