<?xml version="1.0" encoding="UTF-8" standalone="no"?>
<!-- Generated by IcoMoon.io -->

<svg
   xmlns:dc="http://purl.org/dc/elements/1.1/"
   xmlns:cc="http://creativecommons.org/ns#"
   xmlns:rdf="http://www.w3.org/1999/02/22-rdf-syntax-ns#"
   xmlns:svg="http://www.w3.org/2000/svg"
   xmlns="http://www.w3.org/2000/svg"
   xmlns:sodipodi="http://sodipodi.sourceforge.net/DTD/sodipodi-0.dtd"
   xmlns:inkscape="http://www.inkscape.org/namespaces/inkscape"
   version="1.1"
   width="120.00004"
   height="116.82443"
   viewBox="0 0 120.00003 116.82443"
   id="svg4188"
   inkscape:version="0.91 r"
   sodipodi:docname="blog.svg">
  <metadata
     id="metadata4200">
    <rdf:RDF>
      <cc:Work
         rdf:about="">
        <dc:format>image/svg+xml</dc:format>
        <dc:type
           rdf:resource="http://purl.org/dc/dcmitype/StillImage" />
        <dc:title />
      </cc:Work>
    </rdf:RDF>
  </metadata>
  <defs
     id="defs4198" />
  <sodipodi:namedview
     pagecolor="#000000"
     bordercolor="#666666"
     borderopacity="1"
     objecttolerance="10"
     gridtolerance="10"
     guidetolerance="10"
     inkscape:pageopacity="0"
     inkscape:pageshadow="2"
     inkscape:window-width="1863"
     inkscape:window-height="1056"
     id="namedview4196"
     showgrid="false"
     inkscape:snap-bbox="true"
     inkscape:object-paths="true"
     inkscape:snap-bbox-midpoints="true"
     inkscape:snap-bbox-edge-midpoints="true"
     inkscape:bbox-nodes="true"
     inkscape:bbox-paths="true"
     inkscape:snap-intersection-paths="true"
     inkscape:object-nodes="true"
     inkscape:snap-smooth-nodes="true"
     inkscape:snap-midpoints="true"
     inkscape:snap-object-midpoints="true"
     inkscape:snap-center="true"
     inkscape:snap-text-baseline="true"
     inkscape:snap-page="true"
     inkscape:snap-grids="true"
     inkscape:snap-to-guides="true"
     inkscape:zoom="10.153611"
     inkscape:cx="-35.824307"
     inkscape:cy="51.716021"
     inkscape:window-x="57"
     inkscape:window-y="24"
     inkscape:window-maximized="1"
     inkscape:current-layer="svg4188"
     fit-margin-top="10"
     fit-margin-left="10"
     fit-margin-right="10"
     fit-margin-bottom="10" />
  <g
     id="g4190"
     transform="translate(-196.00953,-197.58178)" />
  <path
     style="fill:#000000;fill-opacity:0;stroke:#ffffff;stroke-width:2.75;stroke-miterlimit:4;stroke-dasharray:none;stroke-opacity:1"
     d="m 10.124902,29.204766 c 0.12151,19.62136 -0.0282,39.24486 0.13309,58.86592 0,13.671094 17.29434,18.444474 25.28964,18.648954 16.703195,-0.0166 33.406472,0.0549 50.10935,-0.0583 10.933478,0 24.111018,-2.05655 24.111018,-14.705908 0.028,-13.963791 -0.0513,-25.069002 -0.0513,-37.701456 -3.66491,-8.787356 -18.104084,0.774286 -18.060178,-8.57311 0.0728,-4.49114 0.0113,-14.68687 -0.32908,-16.73807 l -0.50219,-1.50239 c -2.14188,-6.3487 -10.04665,-17.101974 -26.09659,-17.101974 -7.545164,0.135685 -23.772083,-0.3897333 -33.205689,0 -9.433606,0.389733 -12.073899,1.694902 -16.959411,6.696714 -3.18924,3.45543 -4.7153196,7.85971 -4.42356,12.73159 l -0.0151,-0.56235 z"
     id="path4233"
     inkscape:connector-curvature="0"
     sodipodi:nodetypes="ccccccccccscccc" />
  <path
     id="path4256"
     style="fill:none;stroke:#ffffff;stroke-width:2.75;stroke-miterlimit:4;stroke-dasharray:none;stroke-opacity:1"
     d="m 31.759996,70.199806 c -2.636596,0 -3.961194,1.251135 -3.961194,4.556626 l 0,9.569384 c 0,2.4028 2.4126,2.9942 4.35924,2.9942 14.13941,0 43.19373,-0.02 53.24487,0.0991 3.148027,0 5.6313,-0.85547 5.53048,-5.9443 0,-2.493268 0.10455,-4.648304 0.11486,-6.483384 0,-2.730529 -1.812126,-4.737256 -4.807256,-4.737256 -18.827052,-0.008 -35.653947,-0.05465 -54.481,-0.05437 z"
     inkscape:connector-curvature="0"
     sodipodi:nodetypes="csssccccc" />
  <path
     id="path4194"
     style="fill:none;stroke:#ffffff;stroke-width:2.75;stroke-miterlimit:4;stroke-dasharray:none;stroke-opacity:1"
     d="m 27.607182,43.555166 c 0.0612,-2.66486 5e-5,-6.249644 5e-5,-9.225734 0,-3.555948 1.447881,-4.850086 6.212764,-4.850086 12.467,0.04965 20.933134,0.152888 33.4,0.236 4.271707,0 5.891726,1.719586 5.891726,4.874086 0,4.18148 0.01854,5.573041 -6e-5,8.225 -0.023,3.278688 -1.992506,5.875774 -6.298666,5.875774 l -33.997,0.002 c -5.355668,0 -5.208814,-3.22572 -5.208814,-5.13704 z"
     inkscape:connector-curvature="0"
     sodipodi:nodetypes="cscccsccc" />
</svg>
