<?xml version="1.0" encoding="UTF-8" standalone="no"?>
<!-- Created with Inkscape (http://www.inkscape.org/) -->

<svg
   xmlns:dc="http://purl.org/dc/elements/1.1/"
   xmlns:cc="http://creativecommons.org/ns#"
   xmlns:rdf="http://www.w3.org/1999/02/22-rdf-syntax-ns#"
   xmlns:svg="http://www.w3.org/2000/svg"
   xmlns="http://www.w3.org/2000/svg"
   xmlns:sodipodi="http://sodipodi.sourceforge.net/DTD/sodipodi-0.dtd"
   xmlns:inkscape="http://www.inkscape.org/namespaces/inkscape"
   id="svg3046"
   version="1.1"
   inkscape:version="0.48.4 r9939"
   width="256"
   height="256"
   sodipodi:docname="twitter.png">
  <metadata
     id="metadata3052">
    <rdf:RDF>
      <cc:Work
         rdf:about="">
        <dc:format>image/svg+xml</dc:format>
        <dc:type
           rdf:resource="http://purl.org/dc/dcmitype/StillImage" />
        <dc:title></dc:title>
      </cc:Work>
    </rdf:RDF>
  </metadata>
  <defs
     id="defs3050">
    <filter
       id="filter3167"
       inkscape:label="Invert"
       x="0"
       y="0"
       width="1"
       height="1"
       inkscape:menu="Color"
       inkscape:menu-tooltip="Invert colors"
       color-interpolation-filters="sRGB">
      <feColorMatrix
         id="feColorMatrix3169"
         type="saturate"
         values="1"
         result="fbSourceGraphic" />
      <feColorMatrix
         id="feColorMatrix3171"
         in="fbSourceGraphic"
         values="-1 0 0 0 1 0 -1 0 0 1 0 0 -1 0 1 0 0 0 1 0 " />
    </filter>
  </defs>
  <sodipodi:namedview
     pagecolor="#ffffff"
     bordercolor="#666666"
     borderopacity="1"
     objecttolerance="10"
     gridtolerance="10"
     guidetolerance="10"
     inkscape:pageopacity="0"
     inkscape:pageshadow="2"
     inkscape:window-width="1855"
     inkscape:window-height="1056"
     id="namedview3048"
     showgrid="false"
     inkscape:zoom="1.84375"
     inkscape:cx="291.59927"
     inkscape:cy="46.411913"
     inkscape:window-x="1985"
     inkscape:window-y="24"
     inkscape:window-maximized="1"
     inkscape:current-layer="svg3046" />
  <path
     style="fill:#000000;filter:url(#filter3167)"
     d="M 32.048108,215.15731 C 6.871722,201.11448 -17.05303,206.02579 36.345629,191.54116 76.230754,180.72211 65.304195,194.64294 40.327094,157.59143 10.437499,113.25261 18.523919,24.593404 41.806839,41.836265 186.25263,148.80991 70.965071,30.091696 184.5555,32.624316 c 24.41048,0.544257 11.77612,17.390639 56.25817,3.232365 17.48555,-5.565511 -16.68821,23.027737 0.31585,20.350416 28.28644,-4.453745 -8.39889,6.760568 -12.33589,37.901048 C 211.10347,234.0316 82.221344,243.14287 32.048108,215.15731 z m 70.016192,5.58143 c 23.48051,-2.19871 45.17616,-9.64862 62.64092,-21.50979 4.1781,-2.83755 12.22028,-9.74442 17.87151,-15.34859 24.0692,-23.86881 38.31278,-56.54728 39.39086,-90.372912 l 0.3141,-9.855437 6.3728,-5.508962 c 6.95705,-6.014026 17.04856,-18.21182 16.20191,-19.583518 -0.29157,-0.472351 -4.14644,0.419153 -8.56641,1.981121 -12.16947,4.30055 -13.44443,3.909411 -7.67728,-2.355277 5.02326,-5.456628 9.75991,-13.590059 9.75991,-16.759024 0,-2.289094 -0.57587,-2.29366 -4.02332,-0.0319 -3.5493,2.328593 -21.58102,8.924417 -24.39762,8.924417 -1.1892,0 -3.18267,-1.131452 -4.42998,-2.514337 -3.60343,-3.995127 -14.96529,-9.162762 -23.36665,-10.627681 -20.338,-3.54628 -40.91372,7.603578 -50.03078,27.111375 -3.10943,6.653265 -3.78809,9.680447 -4.06336,18.124664 l -0.33045,10.13737 -5.09506,-0.326132 C 109.50087,91.383398 86.708971,84.062393 72.89789,76.247887 62.960549,70.625194 50.446612,60.900014 42.742597,52.812745 38.937844,48.818712 35.29696,45.550867 34.651752,45.550867 c -0.64521,0 -2.348337,2.547901 -3.784718,5.662004 -2.138564,4.636447 -2.611607,7.82561 -2.611607,17.607075 0,11.143359 0.267961,12.490082 3.992405,20.065245 2.195814,4.466093 5.599499,9.952923 7.563731,12.192939 4.237259,4.83219 2.796665,5.23912 -6.107114,1.72506 -3.271685,-1.29125 -6.181635,-1.96175 -6.466537,-1.49001 -0.284903,0.47175 -0.02834,4.07612 0.570042,8.00973 2.242707,14.74175 12.4787,28.87796 25.4703,35.17518 2.933723,1.42203 5.334048,2.8552 5.334048,3.18485 0,0.32963 -3.170222,0.41648 -7.044926,0.19301 -3.874716,-0.22349 -7.392852,-0.0579 -7.818073,0.36779 -1.201466,1.20303 4.951479,12.49453 9.640176,17.69106 6.089744,6.7493 13.646629,11.36529 22.562253,13.78176 l 7.800431,2.11419 -5.724758,3.57697 c -13.189491,8.24114 -29.023412,12.76595 -46.462341,13.27743 -6.735392,0.19755 -12.378284,0.82328 -12.539758,1.39049 -0.512794,1.80127 24.282655,13.36694 35.435188,16.52851 8.996706,2.55043 20.712555,4.44786 32.127753,5.20328 1.309511,0.0867 8.273736,-0.39425 15.476053,-1.06869 z"
     id="path3082"
     inkscape:connector-curvature="0"
     sodipodi:nodetypes="ssssssssssssscssssssssssscsssssssssscssscsscssssss" />
</svg>
